<?xml version="1.0" encoding="UTF-8"?>
<svg width="54px" height="62px" viewBox="0 0 54 62" version="1.1" xmlns="http://www.w3.org/2000/svg" xmlns:xlink="http://www.w3.org/1999/xlink">
    <!-- Generator: Sketch 64 (93537) - https://sketch.com -->
    <title>001-shield</title>
    <desc>Created with Sketch.</desc>
    <g id="UI" stroke="none" stroke-width="1" fill="none" fill-rule="evenodd">
        <g id="001-shield" transform="translate(0.433213, 0.000000)" fill-rule="nonzero">
            <path d="M50.0694274,41.403183 C48.4029694,45.9196014 45.8827057,49.8466339 42.5776978,53.0740661 C38.8157502,56.7475586 33.8896942,59.6665802 27.9362336,61.748825 C27.7408753,61.8169403 27.5370026,61.872757 27.3321839,61.9139099 C27.0616149,61.9673615 26.7863159,61.9962158 26.513382,62 L26.4599304,62 C26.1690216,62 25.8766937,61.9706725 25.586731,61.9139099 C25.3819123,61.872757 25.1808776,61.8169403 24.9864655,61.7502441 C19.0259095,59.6713104 14.0937043,56.7537079 10.3279724,53.0802155 C7.02154541,49.8527832 4.50175473,45.9281159 2.83766177,41.4116974 C-0.188263,33.2000275 -0.0160827031,24.153946 0.122512848,16.8845368 L0.12487793,16.7729035 C0.152786285,16.172638 0.170761078,15.542099 0.180694641,14.8458099 C0.231307953,11.4272767 2.94929507,8.59907535 6.36830142,8.40844727 C13.4967498,8.01063541 19.0112458,5.68572998 23.7230225,1.09315494 L23.7641754,1.05531314 C24.5465545,0.337737977 25.5323333,-0.0141907344 26.513382,3.31004436e-05 C27.4594269,0.0127716367 28.4016877,0.364227234 29.1561585,1.05531314 L29.1963654,1.09315494 C33.9090882,5.68572998 39.423584,8.01063541 46.5520325,8.40844727 C49.9710388,8.59907535 52.6890259,11.4272767 52.7396393,14.8458099 C52.7495728,15.5468293 52.7675475,16.1764222 52.7954559,16.7729035 L52.796875,16.8202057 C52.9349976,24.1033325 53.1062317,33.167389 50.0694274,41.403183 Z" id="Path" fill="#5ECEF4"></path>
            <path d="M41.910736,31 C41.910736,39.5016327 35.0079193,46.4219513 26.513382,46.4522248 L26.4589844,46.4522248 C17.9393768,46.4522248 11.0067596,39.5200806 11.0067596,31 C11.0067596,22.4803924 17.9393768,15.5482484 26.4589844,15.5482484 L26.513382,15.5482484 C35.0079193,15.5785218 41.910736,22.4988403 41.910736,31 Z" id="Path" fill="#FFFFFF"></path>
            <path d="M33.4724884,28.7749023 L26.513382,35.7349548 L25.0096436,37.2386932 C24.6544037,37.5939331 24.1884766,37.7713166 23.7230225,37.7713166 C23.2570954,37.7713166 22.7916413,37.5939331 22.4359284,37.2386932 L19.2028198,34.0041657 C18.4923401,33.2936859 18.4923401,32.1428223 19.2028198,31.4318695 C19.9123535,30.7213898 21.0646362,30.7213898 21.7751159,31.4318695 L23.7230225,33.379776 L30.9001922,26.2026061 C31.610672,25.4916535 32.7629547,25.4916535 33.4724884,26.2026061 C34.1829681,26.9130859 34.1829681,28.0653687 33.4724884,28.7749023 Z" id="Path" fill="#B4D2D7"></path>
        </g>
    </g>
</svg>