<?xml version="1.0" encoding="UTF-8"?>
<svg width="41px" height="62px" viewBox="0 0 41 62" version="1.1" xmlns="http://www.w3.org/2000/svg" xmlns:xlink="http://www.w3.org/1999/xlink">
    <!-- Generator: Sketch 64 (93537) - https://sketch.com -->
    <title>002-arrow</title>
    <desc>Created with Sketch.</desc>
    <g id="UI" stroke="none" stroke-width="1" fill="none" fill-rule="evenodd">
        <g id="002-arrow" transform="translate(0.230088, 0.000000)" fill="#4A46E8" fill-rule="nonzero">
            <path d="M39.6634102,25.4045 C38.8048555,23.3273789 36.8749844,22.0377305 34.6328125,22.0377305 L18.7250898,22.0377305 L32.516457,8.23776563 C33.2259453,7.52827734 33.2259453,6.37873438 32.516457,5.66924609 L27.379418,0.532207031 C26.6699297,-0.17728125 25.5203867,-0.17728125 24.8108984,0.532207031 L1.71759375,23.6341094 C0.13175,25.2181367 -0.31871875,27.4921562 0.539714844,29.5693984 C1.39814844,31.6466406 3.32814062,32.936168 5.5703125,32.936168 L21.4780352,32.936168 L8.7206875,45.6935156 L6.06352734,41.2659648 C5.66621875,40.606125 4.90344922,40.2761445 4.14782422,40.4198828 C3.39219922,40.5724609 2.81748828,41.1826523 2.70741406,41.9436055 L0.138773437,59.9250586 C-0.0341484375,61.1244922 1.00532031,62.1541523 2.19288672,61.9809883 L20.1760352,59.4124687 C20.9388047,59.3025156 21.5489961,58.7278047 21.7015742,57.973875 C21.8541523,57.2199453 21.5135156,56.4519687 20.8536758,56.0563555 L16.426125,53.3991953 L38.4855312,31.3397891 C40.071375,29.7556406 40.5219648,27.4816211 39.6634102,25.4045 Z" id="Path"></path>
        </g>
    </g>
</svg>