<?xml version="1.0" encoding="UTF-8"?>
<svg width="62px" height="62px" viewBox="0 0 62 62" version="1.1" xmlns="http://www.w3.org/2000/svg" xmlns:xlink="http://www.w3.org/1999/xlink">
    <!-- Generator: Sketch 64 (93537) - https://sketch.com -->
    <title>003-check</title>
    <desc>Created with Sketch.</desc>
    <g id="UI" stroke="none" stroke-width="1" fill="none" fill-rule="evenodd">
        <g id="003-check" fill-rule="nonzero">
            <path d="M28.8100288,42.124976 L28.8100288,42.124976 C28.10925,42.124976 27.4862692,41.8134856 27.0969808,41.346399 L15.3393365,28.5764856 C14.4828125,27.6421635 14.5607596,26.1626587 15.4950817,25.3061346 C16.4294038,24.4496106 17.9089087,24.5275577 18.7654327,25.4618798 L28.8878269,36.4407981 L56.9192788,8.48729327 C57.853601,7.55297115 59.3331058,7.55297115 60.1896298,8.48729327 C61.0461538,9.42161538 61.1239519,10.9011202 60.1896298,11.7576442 L30.4452788,41.4241971 C30.0558413,41.8914327 29.4330096,42.124976 28.8100288,42.124976 Z" id="Path" fill="#5ECEF4"></path>
            <path d="M30.9903125,61.980476 C13.9377788,61.980476 0,48.0426971 0,30.9903125 C0,13.9379279 13.9377788,0 30.9903125,0 C32.3140721,0 33.3261923,1.01226923 33.3261923,2.33587981 C33.3261923,3.65949038 32.3139231,4.67175962 30.9903125,4.67175962 C16.507351,4.67175962 4.67190865,16.5072019 4.67190865,30.9901635 C4.67190865,45.473125 16.507351,57.3085673 30.9903125,57.3085673 C45.473274,57.3085673 57.3087163,45.473125 57.3087163,30.9901635 C57.3087163,29.6664038 58.3209856,28.6542837 59.6445962,28.6542837 C60.9682067,28.6542837 61.980476,29.6665529 61.980476,30.9901635 C61.980476,48.0426971 48.0426971,61.980476 30.9903125,61.980476 Z" id="Path" fill="#F8B805"></path>
        </g>
    </g>
</svg>