<?xml version="1.0" encoding="UTF-8"?>
<svg width="63px" height="62px" viewBox="0 0 63 62" version="1.1" xmlns="http://www.w3.org/2000/svg" xmlns:xlink="http://www.w3.org/1999/xlink">
    <!-- Generator: Sketch 64 (93537) - https://sketch.com -->
    <title>005-chat</title>
    <desc>Created with Sketch.</desc>
    <g id="UI" stroke="none" stroke-width="1" fill="none" fill-rule="evenodd">
        <g id="005-chat" transform="translate(0.433213, 0.000000)" fill-rule="nonzero">
            <path d="M35.779207,3.1 L35.779207,22.216707 C35.779207,23.8959141 34.3584141,25.316707 32.679207,25.316707 L16.275,25.316707 L4.13329297,31.645793 L4.13329297,25.3165859 L3.1,25.3165859 C1.42079297,25.3165859 0,23.895793 0,22.2165859 L0,3.1 C0,1.42079297 1.42079297,0 3.1,0 L32.808293,0 C34.4875,0 35.779207,1.42079297 35.779207,3.1 Z" id="Path" fill="#5ECEF4"></path>
            <g id="Group" transform="translate(4.964844, 9.203125)" fill="#FFFFFF">
                <circle id="Oval" cx="3.43094922" cy="3.45516797" r="3.35829297"></circle>
                <circle id="Oval" cx="12.9893633" cy="3.45516797" r="3.35829297"></circle>
                <circle id="Oval" cx="22.5476562" cy="3.45516797" r="3.35829297"></circle>
            </g>
            <path d="M26.220793,10.720793 L26.220793,29.708293 C26.220793,31.3875 27.6415859,32.808293 29.320793,32.808293 L45.8540859,32.808293 L57.995793,39.1375 L57.995793,32.808293 L58.9,32.808293 C60.579207,32.808293 62,31.3875 62,29.708293 L62,10.720793 C62,9.04158594 60.579207,7.62079297 58.9,7.62079297 L29.191707,7.62079297 C27.5125,7.62079297 26.220793,9.04170703 26.220793,10.720793 Z" id="Path" fill="#F8B805"></path>
            <g id="Group" transform="translate(31.121094, 16.832031)" fill="#FFFFFF">
                <circle id="Oval" cx="22.4831133" cy="3.44717578" r="3.35829297"></circle>
                <circle id="Oval" cx="12.9246992" cy="3.44717578" r="3.35829297"></circle>
                <circle id="Oval" cx="3.36640625" cy="3.44717578" r="3.35829297"></circle>
            </g>
            <path d="M44.95,33.583293 L44.95,52.7 C44.95,54.379207 43.529207,55.8 41.85,55.8 L31.645793,55.8 L26.995793,62 L22.345793,55.670793 L12.270793,55.670793 C10.5915859,55.670793 9.17079297,54.25 9.17079297,52.570793 L9.17079297,33.583293 C9.17079297,31.9040859 10.5915859,30.483293 12.270793,30.483293 L41.9790859,30.483293 C43.658293,30.483293 44.95,31.904207 44.95,33.583293 Z" id="Path" fill="#01F0A5"></path>
            <g id="Group" transform="translate(14.167969, 39.718750)" fill="#FFFFFF">
                <circle id="Oval" cx="22.3862383" cy="3.42295703" r="3.35829297"></circle>
                <circle id="Oval" cx="12.9570312" cy="3.42295703" r="3.35829297"></circle>
                <circle id="Oval" cx="3.39873828" cy="3.42295703" r="3.35829297"></circle>
            </g>
        </g>
    </g>
</svg>