<?xml version="1.0" encoding="UTF-8"?>
<svg width="71px" height="62px" viewBox="0 0 71 62" version="1.1" xmlns="http://www.w3.org/2000/svg" xmlns:xlink="http://www.w3.org/1999/xlink">
    <!-- Generator: Sketch 64 (93537) - https://sketch.com -->
    <title>006-self-awareness</title>
    <desc>Created with Sketch.</desc>
    <g id="UI" stroke="none" stroke-width="1" fill="none" fill-rule="evenodd">
        <g id="006-self-awareness" fill-rule="nonzero">
            <path d="M23.8592347,0.0790884155 C11.834683,0.0790884155 2.35652352,10.3179964 3.28280591,22.3067532 L3.70894957,27.8210126 C3.73172817,28.115295 3.65999682,28.4090116 3.5040837,28.6597176 L2.36883245,30.4862497 C0.820595366,32.9770396 0,35.8515286 0,38.7845911 C0,39.2083296 0.343518198,39.5517063 0.767115186,39.5517063 L4.25648476,39.5517063 L5.8395264,48.75341 C6.10989843,50.3247086 7.46954006,51.474957 9.06390027,51.4811822 L18.3670465,51.517543 C19.8477967,51.5233438 21.0451585,52.7253745 21.0451585,54.2062662 L21.0451585,59.8467275 C21.0451585,61.0242818 22.0035573,61.9770213 23.1812532,61.9699864 L29.6860277,61.9460368 L30.997424,61.0469189 L40.0866496,61.0469189 L40.5225555,61.9061389 L40.5589164,61.9059974 L40.5490126,42.6026233 L44.8482249,28.3112475 C49.0798089,14.2448281 38.5483162,0.0790884155 23.8592347,0.0790884155 Z" id="Path" fill="#FC5E93"></path>
            <path d="M26.7488623,60.2011398 L26.7488623,53.6750014 C26.7488623,50.337159 24.0499524,47.6274965 20.7119685,47.6144802 L14.767604,47.5912772 C13.1732438,47.585052 11.8136022,46.4348036 11.5432301,44.863505 L10.3308712,37.8165715 C10.1166675,36.5715303 9.03701869,35.6618013 7.77372628,35.6618013 L6.47081891,35.6618013 C6.04708044,35.6618013 5.70370372,35.3182831 5.70370372,34.8946861 C5.70370372,31.9617651 6.52429909,29.0872761 8.07253617,26.5962032 L9.20778742,24.7696711 C9.36355906,24.5189651 9.43529041,24.2252486 9.41251182,23.9309661 L8.98636815,18.4167067 C8.48962499,11.9877664 10.9859327,6.06108715 15.261376,1.94764066 C7.66619999,5.43304873 2.5935058,13.3856082 3.28280591,22.3067532 L3.70894957,27.8210126 C3.73172817,28.115295 3.65999682,28.4090116 3.5040837,28.6597176 L2.36883245,30.4862497 C0.820595366,32.9770396 1.94927653e-15,35.8515286 1.94927653e-15,38.7845911 C1.94927653e-15,39.2083296 0.343518198,39.5517063 0.767115186,39.5517063 L4.25648476,39.5517063 L5.8395264,48.75341 C6.10989843,50.3247086 7.46954006,51.474957 9.06390027,51.4811822 L18.3670465,51.517543 C19.8477967,51.5233438 21.0451585,52.7253745 21.0451585,54.2061247 L21.0451585,59.846586 C21.0451585,61.0242818 22.0035573,61.9768799 23.1812532,61.9698449 L27.6601476,61.9427827 C27.1100657,61.5593666 26.7488623,60.9231222 26.7488623,60.2011398 Z" id="Path" fill="#FE646F"></path>
            <path d="M67.861256,30.4612074 L66.7260048,28.6346753 C66.5702332,28.3841108 66.4985018,28.0902527 66.5211389,27.7959702 L66.9472826,22.2817109 C67.8737065,10.2929541 58.3954055,0.0540461086 46.3709953,0.0540461086 C31.6819138,0.0540461086 21.1504211,14.2197858 25.3820051,28.2862052 L29.6812174,42.577581 L29.6863107,61.9306153 L29.7013078,61.9306153 C29.730736,61.9007626 31.185878,60.4258131 31.185878,60.4258131 L39.7482247,60.4258131 L40.5399578,61.9396701 L47.0489768,61.9450856 C48.2265312,61.9521205 49.1850714,60.9995225 49.1850714,59.8218266 L49.1850714,54.1813654 C49.1850714,52.7006152 50.3824333,51.4985844 51.8631835,51.4927837 L61.1663297,51.4564228 C62.7606899,51.4501976 64.1203315,50.2999493 64.3907036,48.7286506 L65.9737452,39.5269469 L69.4631148,39.5269469 C69.8868533,39.5269469 70.23023,39.1834287 70.23023,38.7598318 C70.23023,35.8267692 69.4094931,32.9522803 67.861256,30.4612074 L67.861256,30.4612074 Z" id="Path" fill="#5ECEF4"></path>
            <path d="M40.5396748,42.6698272 L44.8388871,28.3784515 C47.8688648,18.3059263 43.3104575,8.09672959 35.0948831,3.15999957 C26.8793086,8.09672959 22.3568378,18.3059263 25.3869569,28.3784515 L29.6861692,42.6698272 L29.6861692,61.9458953 L35.1129928,61.9651369 L40.5398163,61.9396701 L40.5398163,42.6698272 L40.5396748,42.6698272 Z" id="Path" fill="#FEF48B"></path>
            <path d="M14.9938336,37.6960289 L21.5536447,32.1988888 C22.0083677,31.8178779 22.7010634,32.1411642 22.7010634,32.7343981 L22.7010634,35.5824299 L32.6031028,35.5824299 C33.0003841,35.5824299 33.3223971,35.9044428 33.3223971,36.3017242 L33.3223971,40.161352 C33.3223971,40.5586334 33.0003841,40.8806463 32.6031028,40.8806463 L22.7010634,40.8806463 L22.7010634,43.7286782 C22.7010634,44.321912 22.0083677,44.6451983 21.5536447,44.2641874 L14.9938336,38.7670473 C14.6606436,38.4877619 14.6606436,37.9753143 14.9938336,37.6960289 L14.9938336,37.6960289 Z" id="Path" fill="#5ECEF4"></path>
            <path d="M58.807118,17.8212091 L52.247307,12.3240691 C51.792584,11.9430581 51.0998883,12.2663444 51.0998883,12.8595783 L51.0998883,15.7076101 L41.1978489,15.7076101 C40.8005675,15.7076101 40.4785546,16.0296231 40.4785546,16.4269044 L40.4785546,20.2865323 C40.4785546,20.6838136 40.8005675,21.0058266 41.1978489,21.0058266 L51.0998883,21.0058266 L51.0998883,23.8538584 C51.0998883,24.4470923 51.792584,24.7703785 52.247307,24.3893676 L58.807118,18.8922276 C59.140308,18.6129422 59.140308,18.1004945 58.807118,17.8212091 Z" id="Path" fill="#FC5E93"></path>
        </g>
    </g>
</svg>