<svg width="258" height="201" viewBox="0 0 258 201" fill="none" xmlns="http://www.w3.org/2000/svg">
<g clip-path="url(#clip0)">
<circle cx="141.5" cy="97.5" r="84.5" fill="#F1F1FF" fill-opacity="0.6"/>
<rect x="56.4526" y="37.2858" width="182.701" height="132.241" rx="17" fill="white" stroke="#202058" stroke-width="2"/>
<rect x="184" y="25.8041" width="46.6513" height="57.124" rx="4" fill="#3434FF"/>
<rect x="184" y="86.804" width="46.6513" height="26.6579" rx="4" fill="#F5F5FA"/>
<g filter="url(#filter0_d)">
<circle cx="207" cy="99.804" r="4.29032" fill="white"/>
<path d="M213.588 92.8041C209.607 92.8041 206.369 95.944 206.369 99.8041C206.369 103.664 209.607 106.804 213.588 106.804C217.569 106.804 220.808 103.664 220.808 99.8041C220.808 95.944 217.569 92.8041 213.588 92.8041ZM212.749 102.252C212.283 102.518 211.705 102.182 211.705 101.646V97.9623C211.705 97.4266 212.283 97.0906 212.749 97.356L215.978 99.1977C216.448 99.4656 216.448 100.143 215.978 100.41L212.749 102.252Z" fill="#3434FF"/>
</g>
<rect x="184" y="116.804" width="46.6513" height="26.6579" rx="4" fill="#F5F5FA"/>
<path d="M183.982 151.678C183.982 149.468 185.773 147.678 187.982 147.678H226.633C228.842 147.678 230.633 149.468 230.633 151.678V160.35C230.633 164.768 227.051 168.35 222.633 168.35H183.982V151.678Z" fill="#F5F5FA"/>
<g filter="url(#filter1_d)">
<circle cx="207" cy="41.804" r="4.29032" fill="#3434FF"/>
<path d="M213.588 34.8041C209.607 34.8041 206.369 37.944 206.369 41.8041C206.369 45.6641 209.607 48.8041 213.588 48.8041C217.569 48.8041 220.808 45.6641 220.808 41.8041C220.808 37.944 217.569 34.8041 213.588 34.8041ZM212.749 44.2522C212.283 44.5176 211.705 44.1816 211.705 43.6458V39.9623C211.705 39.4266 212.283 39.0906 212.749 39.356L215.978 41.1977C216.448 41.4656 216.448 42.1426 215.978 42.4104L212.749 44.2522Z" fill="white"/>
</g>
<rect x="190" y="52.8041" width="35" height="3" rx="1.5" fill="white"/>
<rect opacity="0.7" x="192" y="58.8041" width="31" height="3" rx="1.5" fill="white"/>
<rect opacity="0.7" x="190" y="64.8041" width="35" height="3" rx="1.5" fill="white"/>
<rect opacity="0.7" x="198" y="70.8041" width="20" height="3" rx="1.5" fill="white"/>
<circle cx="73.5419" cy="50.5668" r="3.80827" fill="#3434FF"/>
<circle cx="84.9667" cy="50.5668" r="3.80827" fill="#ECECF4"/>
<circle cx="96.3915" cy="50.5668" r="3.80827" fill="#ECECF4"/>
<path d="M70.6199 69.0394C70.6199 64.6211 74.2016 61.0394 78.6199 61.0394H166.461C170.879 61.0394 174.461 64.6212 174.461 69.0394V168.35H70.6199V69.0394Z" fill="#F8F8FD"/>
<rect x="83" y="110.804" width="80" height="49" rx="3.14118" fill="#E8E8F7"/>
<g filter="url(#filter2_d)">
<circle cx="123.733" cy="135.304" r="7.49765" fill="white"/>
<path d="M127.71 123.071C120.752 123.071 115.093 128.558 115.093 135.304C115.093 142.05 120.752 147.537 127.71 147.537C134.667 147.537 140.326 142.05 140.326 135.304C140.326 128.558 134.667 123.071 127.71 123.071ZM125.462 140.027C124.997 140.293 124.418 139.957 124.418 139.421V131.187C124.418 130.651 124.997 130.315 125.462 130.581L132.681 134.698C133.15 134.965 133.15 135.642 132.681 135.91L125.462 140.027Z" fill="#3434FF"/>
</g>
<rect x="81" y="72.8041" width="23" height="6" rx="3" fill="#9595BC"/>
<rect x="81" y="84.8041" width="77" height="6" rx="3" fill="#EAEAF2"/>
<rect x="81" y="93.8041" width="42" height="6" rx="3" fill="#3434FF"/>
<rect x="128" y="93.8041" width="22" height="6" rx="3" fill="#EAEAF2"/>
<rect x="71" y="113.804" width="103" height="54" fill="url(#paint0_linear)"/>
<g filter="url(#filter3_d)">
<circle cx="207" cy="130.804" r="4.29032" fill="white"/>
<path d="M213.588 123.804C209.607 123.804 206.369 126.944 206.369 130.804C206.369 134.664 209.607 137.804 213.588 137.804C217.569 137.804 220.808 134.664 220.808 130.804C220.808 126.944 217.569 123.804 213.588 123.804ZM212.749 133.252C212.283 133.518 211.705 133.182 211.705 132.646V128.962C211.705 128.427 212.283 128.091 212.749 128.356L215.978 130.198C216.448 130.466 216.448 131.143 215.978 131.41L212.749 133.252Z" fill="#3434FF"/>
</g>
<g filter="url(#filter4_d)">
<circle cx="207" cy="160.804" r="4.29032" fill="white"/>
<path d="M213.588 153.804C209.607 153.804 206.369 156.944 206.369 160.804C206.369 164.664 209.607 167.804 213.588 167.804C217.569 167.804 220.808 164.664 220.808 160.804C220.808 156.944 217.569 153.804 213.588 153.804ZM212.749 163.252C212.283 163.518 211.705 163.182 211.705 162.646V158.962C211.705 158.427 212.283 158.091 212.749 158.356L215.978 160.198C216.448 160.466 216.448 161.143 215.978 161.41L212.749 163.252Z" fill="#3434FF"/>
</g>
<g filter="url(#filter5_d)">
<circle cx="59.1349" cy="145.939" r="41.1349" fill="#3434FF"/>
</g>
<g filter="url(#filter6_d)">
<rect x="58.2878" y="144.53" width="29.2141" height="3.85027" rx="1.92514" transform="rotate(20 58.2878 144.53)" fill="white"/>
<rect x="67.5774" y="129.618" width="3.85027" height="19.9244" rx="1.92514" transform="rotate(35 67.5774 129.618)" fill="white"/>
<circle cx="59.1347" cy="145.939" r="5.88767" fill="white"/>
</g>
</g>
<defs>
<filter id="filter0_d" x="199.219" y="90.3609" width="25.0788" height="20.9804" filterUnits="userSpaceOnUse" color-interpolation-filters="sRGB">
<feFlood flood-opacity="0" result="BackgroundImageFix"/>
<feColorMatrix in="SourceAlpha" type="matrix" values="0 0 0 0 0 0 0 0 0 0 0 0 0 0 0 0 0 0 127 0"/>
<feOffset dy="1.04706"/>
<feGaussianBlur stdDeviation="1.7451"/>
<feColorMatrix type="matrix" values="0 0 0 0 0.203922 0 0 0 0 0.203922 0 0 0 0 1 0 0 0 0.25 0"/>
<feBlend mode="normal" in2="BackgroundImageFix" result="effect1_dropShadow"/>
<feBlend mode="normal" in="SourceGraphic" in2="effect1_dropShadow" result="shape"/>
</filter>
<filter id="filter1_d" x="199.219" y="32.3609" width="25.0788" height="20.9804" filterUnits="userSpaceOnUse" color-interpolation-filters="sRGB">
<feFlood flood-opacity="0" result="BackgroundImageFix"/>
<feColorMatrix in="SourceAlpha" type="matrix" values="0 0 0 0 0 0 0 0 0 0 0 0 0 0 0 0 0 0 127 0"/>
<feOffset dy="1.04706"/>
<feGaussianBlur stdDeviation="1.7451"/>
<feColorMatrix type="matrix" values="0 0 0 0 0.114722 0 0 0 0 0.114722 0 0 0 0 0.466667 0 0 0 0.25 0"/>
<feBlend mode="normal" in2="BackgroundImageFix" result="effect1_dropShadow"/>
<feBlend mode="normal" in="SourceGraphic" in2="effect1_dropShadow" result="shape"/>
</filter>
<filter id="filter2_d" x="111.603" y="120.628" width="32.214" height="31.4464" filterUnits="userSpaceOnUse" color-interpolation-filters="sRGB">
<feFlood flood-opacity="0" result="BackgroundImageFix"/>
<feColorMatrix in="SourceAlpha" type="matrix" values="0 0 0 0 0 0 0 0 0 0 0 0 0 0 0 0 0 0 127 0"/>
<feOffset dy="1.04706"/>
<feGaussianBlur stdDeviation="1.7451"/>
<feColorMatrix type="matrix" values="0 0 0 0 0.203922 0 0 0 0 0.203922 0 0 0 0 1 0 0 0 0.25 0"/>
<feBlend mode="normal" in2="BackgroundImageFix" result="effect1_dropShadow"/>
<feBlend mode="normal" in="SourceGraphic" in2="effect1_dropShadow" result="shape"/>
</filter>
<filter id="filter3_d" x="199.219" y="121.361" width="25.0788" height="20.9804" filterUnits="userSpaceOnUse" color-interpolation-filters="sRGB">
<feFlood flood-opacity="0" result="BackgroundImageFix"/>
<feColorMatrix in="SourceAlpha" type="matrix" values="0 0 0 0 0 0 0 0 0 0 0 0 0 0 0 0 0 0 127 0"/>
<feOffset dy="1.04706"/>
<feGaussianBlur stdDeviation="1.7451"/>
<feColorMatrix type="matrix" values="0 0 0 0 0.203922 0 0 0 0 0.203922 0 0 0 0 1 0 0 0 0.25 0"/>
<feBlend mode="normal" in2="BackgroundImageFix" result="effect1_dropShadow"/>
<feBlend mode="normal" in="SourceGraphic" in2="effect1_dropShadow" result="shape"/>
</filter>
<filter id="filter4_d" x="199.219" y="151.361" width="25.0788" height="20.9804" filterUnits="userSpaceOnUse" color-interpolation-filters="sRGB">
<feFlood flood-opacity="0" result="BackgroundImageFix"/>
<feColorMatrix in="SourceAlpha" type="matrix" values="0 0 0 0 0 0 0 0 0 0 0 0 0 0 0 0 0 0 127 0"/>
<feOffset dy="1.04706"/>
<feGaussianBlur stdDeviation="1.7451"/>
<feColorMatrix type="matrix" values="0 0 0 0 0.203922 0 0 0 0 0.203922 0 0 0 0 1 0 0 0 0.25 0"/>
<feBlend mode="normal" in2="BackgroundImageFix" result="effect1_dropShadow"/>
<feBlend mode="normal" in="SourceGraphic" in2="effect1_dropShadow" result="shape"/>
</filter>
<filter id="filter5_d" x="6" y="94.8042" width="106.27" height="106.27" filterUnits="userSpaceOnUse" color-interpolation-filters="sRGB">
<feFlood flood-opacity="0" result="BackgroundImageFix"/>
<feColorMatrix in="SourceAlpha" type="matrix" values="0 0 0 0 0 0 0 0 0 0 0 0 0 0 0 0 0 0 127 0"/>
<feOffset dy="2"/>
<feGaussianBlur stdDeviation="6"/>
<feColorMatrix type="matrix" values="0 0 0 0 0.203922 0 0 0 0 0.203922 0 0 0 0 1 0 0 0 0.31 0"/>
<feBlend mode="normal" in2="BackgroundImageFix" result="effect1_dropShadow"/>
<feBlend mode="normal" in="SourceGraphic" in2="effect1_dropShadow" result="shape"/>
</filter>
<filter id="filter6_d" x="48.2471" y="127.374" width="41.9512" height="37.2243" filterUnits="userSpaceOnUse" color-interpolation-filters="sRGB">
<feFlood flood-opacity="0" result="BackgroundImageFix"/>
<feColorMatrix in="SourceAlpha" type="matrix" values="0 0 0 0 0 0 0 0 0 0 0 0 0 0 0 0 0 0 127 0"/>
<feOffset dy="2"/>
<feGaussianBlur stdDeviation="2.5"/>
<feColorMatrix type="matrix" values="0 0 0 0 0.12 0 0 0 0 0.12 0 0 0 0 0.8 0 0 0 0.18 0"/>
<feBlend mode="normal" in2="BackgroundImageFix" result="effect1_dropShadow"/>
<feBlend mode="normal" in="SourceGraphic" in2="effect1_dropShadow" result="shape"/>
</filter>
<linearGradient id="paint0_linear" x1="122.5" y1="113.804" x2="122.5" y2="167.804" gradientUnits="userSpaceOnUse">
<stop stop-color="white" stop-opacity="0"/>
<stop offset="1" stop-color="white"/>
</linearGradient>
<clipPath id="clip0">
<rect width="258" height="201" fill="white"/>
</clipPath>
</defs>
</svg>
