<svg xmlns="http://www.w3.org/2000/svg" viewBox="0 0 155 28">
  <g id="Layer_2" data-name="Layer 2">
    <g id="Layer_1-2" data-name="Layer 1">
      <g>
        <g>
          <path d="M0,3.28v7.59c0,.48,0,.94,0,1.38l3.55-2.9L13.87.07C9.34-.29,4.85.79,0,3.28Z" fill="#3335ff"/>
          <path d="M17.13.55,14.54,2.9l9.76,8.82c0-.29,0-.57,0-.87V3.26A30.56,30.56,0,0,0,17.13.55Z" fill="#3335ff"/>
          <path d="M1.86,15.5.37,16.85a13,13,0,0,0,1.32,3.61l10.06-9.08L18.85,18c-1.76,3.63-6.7,5.29-6.7,5.29a16.28,16.28,0,0,1-5.34-3.19l-2.19,2-1,.91c2,2,4.83,3.59,8.54,5,6.78-2.56,10.63-5.64,11.8-11.17,0-.13.05-.24.08-.37L12.2,6.16l0,0Z" fill="#3335ff"/>
        </g>
        <g>
          <path d="M37.5,13.83A7.4,7.4,0,0,1,45,6.12a6.55,6.55,0,0,1,6.4,4L48.7,11.44A3.78,3.78,0,0,0,45,8.93c-2.65,0-4.43,2-4.43,4.9s1.78,4.91,4.43,4.91a3.78,3.78,0,0,0,3.66-2.51l2.74,1.33a6.53,6.53,0,0,1-6.4,4A7.45,7.45,0,0,1,37.5,13.83Z"/>
          <path d="M63.64,10.35,58.89,22.51a4.39,4.39,0,0,1-4.28,3.28,3.83,3.83,0,0,1-1.72-.35V23a5,5,0,0,0,1.36.2,1.75,1.75,0,0,0,1.81-1.25l.28-.62-4.29-11h3.21l2.58,7.11,2.59-7.11Z"/>
          <path d="M76.37,15.83a5.56,5.56,0,0,1-5.58,5.72,4.47,4.47,0,0,1-3.33-1.28v1H64.65V6.36h3v4.92a4.33,4.33,0,0,1,3.15-1.17A5.58,5.58,0,0,1,76.37,15.83Zm-3.11,0a2.83,2.83,0,0,0-2.83-3,2.78,2.78,0,0,0-2.77,3,2.76,2.76,0,0,0,2.77,3A2.81,2.81,0,0,0,73.26,15.83Z"/>
          <path d="M88,16.68H80.3a2.7,2.7,0,0,0,4.91,1.06l2.41,1.14a4.87,4.87,0,0,1-4.71,2.67,5.55,5.55,0,0,1-5.74-5.74,5.5,5.5,0,0,1,5.54-5.7,5.34,5.34,0,0,1,5.43,5.4A4,4,0,0,1,88,16.68Zm-3-2.21a2.12,2.12,0,0,0-2.24-2,2.3,2.3,0,0,0-2.35,2Z"/>
          <path d="M96.27,10.23v2.61H94.82a2.35,2.35,0,0,0-2.46,2.57v5.9h-3v-11h2.81V12a2.83,2.83,0,0,1,3-1.77Z"/>
          <path d="M97,17.36l2.61-1.23a4.11,4.11,0,0,0,3.71,2.71c1.53,0,2.43-.7,2.43-1.58s-.54-1.21-1.42-1.49l-3-1c-2.55-.8-3.76-2.25-3.76-4.23,0-2.67,2.15-4.46,5.38-4.46a6.09,6.09,0,0,1,5.92,3.79l-2.61,1.23a3.34,3.34,0,0,0-3.31-2.31c-1.36,0-2.27.7-2.27,1.62,0,.71.52,1.23,1.49,1.53l3,.92c2.51.79,3.77,2.13,3.77,4.18,0,2.69-2.21,4.47-5.54,4.47A6.42,6.42,0,0,1,97,17.36Z"/>
          <path d="M120.47,14.25v7.06h-3V14.89a2,2,0,1,0-4,0v6.42h-3V6.36h3v5a3.38,3.38,0,0,1,2.87-1.25A3.93,3.93,0,0,1,120.47,14.25Z"/>
          <path d="M122.27,6.36h3v3h-3Zm0,4h3v11h-3Z"/>
          <path d="M137.52,16.68h-7.7a2.7,2.7,0,0,0,4.91,1.06l2.41,1.14a4.87,4.87,0,0,1-4.71,2.67,5.55,5.55,0,0,1-5.74-5.74,5.5,5.5,0,0,1,5.54-5.7,5.34,5.34,0,0,1,5.43,5.4A4,4,0,0,1,137.52,16.68Zm-3.05-2.21a2.12,2.12,0,0,0-2.24-2,2.3,2.3,0,0,0-2.35,2Z"/>
          <path d="M138.87,6.36h3v15h-3Z"/>
          <path d="M155,6.36v15h-2.81v-1a4.48,4.48,0,0,1-3.33,1.28,5.56,5.56,0,0,1-5.58-5.72,5.58,5.58,0,0,1,5.56-5.72A4.35,4.35,0,0,1,152,11.28V6.36Zm-3,9.47a2.78,2.78,0,0,0-2.77-3,2.83,2.83,0,0,0-2.83,3,2.81,2.81,0,0,0,2.83,3A2.76,2.76,0,0,0,152,15.83Z"/>
        </g>
      </g>
    </g>
  </g>
</svg>
