<?xml version="1.0" encoding="UTF-8"?>
<svg width="99px" height="113px" viewBox="0 0 99 113" version="1.1" xmlns="http://www.w3.org/2000/svg" xmlns:xlink="http://www.w3.org/1999/xlink">
    <!-- Generator: Sketch 64 (93537) - https://sketch.com -->
    <title>logo-mini</title>
    <desc>Created with Sketch.</desc>
    <g id="UI" stroke="none" stroke-width="1" fill="none" fill-rule="evenodd">
        <g id="logo-mini" fill="#3335FF" fill-rule="nonzero">
            <g id="Group">
                <path d="M0,13.2331034 L0,43.8548276 C0,45.7913793 0,47.6472414 0,49.4224138 L14.342,37.7224138 L56.0348,0.282413793 C37.7336,-1.17 19.594,3.18724138 0,13.2331034 Z" id="Path"></path>
                <path d="M69.2052,2.21896552 L58.7416,11.7 L98.172,47.2841379 C98.172,46.1141379 98.172,44.9844828 98.172,43.7741379 L98.172,13.1524138 C89.0141594,8.30832843 79.2820265,4.63495851 69.2052,2.21896552 Z" id="Path"></path>
                <path d="M7.5144,62.5344828 L1.4948,67.9810345 C2.53990472,73.0729276 4.33714535,77.981396 6.8276,82.5455172 L47.47,45.9124138 L76.154,72.6206897 C69.0436,87.2658621 49.086,93.9631034 49.086,93.9631034 C41.1333279,91.0976595 33.808451,86.7279129 27.5124,81.0931034 L18.6648,89.162069 L14.6248,92.8334483 C22.7048,100.902414 34.138,107.317241 49.1264,113.005862 C76.5176,102.677586 92.0716,90.2513793 96.7984,67.9406897 C96.7984,67.4162069 97.0004,66.9724138 97.1216,66.447931 L49.288,24.8524138 L49.288,24.8524138 L7.5144,62.5344828 Z" id="Path"></path>
            </g>
        </g>
    </g>
</svg>