<svg xmlns="http://www.w3.org/2000/svg" width="273" height="49.255" viewBox="0 0 273 49.255">
  <g id="Logo" transform="translate(0 -0.004)">
    <g id="Group">
      <path id="Path" d="M0,5.764V21.539l6.253-5.1L24.429.119C16.45-.514,8.542,1.385,0,5.764Z" transform="translate(0 0.004)" fill="#fff"/>
      <path id="Path-2" data-name="Path" d="M4.562,0,0,4.133,17.19,19.644V4.766A53.876,53.876,0,0,0,4.562,0Z" transform="translate(25.609 0.967)" fill="#fff"/>
      <path id="Path-3" data-name="Path" d="M2.624,16.426,0,18.8a22.84,22.84,0,0,0,2.325,6.349L20.043,9.18,32.549,20.822c-3.1,6.384-11.8,9.3-11.8,9.3a28.683,28.683,0,0,1-9.405-5.61L7.485,28.032l-1.761,1.6c3.523,3.517,8.507,6.313,15.041,8.793,11.942-4.5,18.723-9.919,20.783-19.644a2.87,2.87,0,0,1,.141-.651L20.836,0h0Z" transform="translate(0.652 10.833)" fill="#fff"/>
    </g>
    <g id="Group-2" data-name="Group" transform="translate(65.168 10.552)">
      <path id="Path-4" data-name="Path" d="M.012,13.577A13.023,13.023,0,0,1,13.221.018,11.538,11.538,0,0,1,24.493,7.052L19.738,9.374a6.658,6.658,0,0,0-6.517-4.414c-4.667,0-7.8,3.517-7.8,8.617s3.135,8.635,7.8,8.635A6.657,6.657,0,0,0,19.668,17.8l4.826,2.339a11.5,11.5,0,0,1-11.272,7.034A13.111,13.111,0,0,1,.012,13.577Z" transform="translate(0.869 0.193)" fill="#fff"/>
      <path id="Path-5" data-name="Path" d="M20.413.035,12.047,21.42a7.73,7.73,0,0,1-7.538,5.768,6.755,6.755,0,0,1-3.029-.616V22.282a8.819,8.819,0,0,0,2.4.352,3.082,3.082,0,0,0,3.188-2.2l.493-1.09L0,0H5.654L10.2,12.5,14.76,0Z" transform="translate(26.507 7.615)" fill="#fff"/>
      <path id="Shape" d="M10.473,26.721a7.836,7.836,0,0,1-5.524-2.259v1.759H0V0H5.284V8.653A7.6,7.6,0,0,1,10.5,6.588c.109,0,.219,0,.328.007a9.819,9.819,0,0,1,9.811,10.059,9.786,9.786,0,0,1-9.791,10.059h-.037C10.7,26.719,10.586,26.721,10.473,26.721ZM10.19,11.379h-.01A4.892,4.892,0,0,0,5.3,16.655a4.857,4.857,0,0,0,4.843,5.276h.08a4.946,4.946,0,0,0,4.94-5.276,4.98,4.98,0,0,0-4.975-5.276Z" transform="translate(48.7 0.633)" fill="#fff"/>
      <path id="Shape-2" data-name="Shape" d="M10.749,20.144c-.21,0-.423-.008-.633-.023-.112,0-.226.006-.339.006a9.768,9.768,0,0,1-9.771-10.1A9.68,9.68,0,0,1,9.688,0h.233a9.4,9.4,0,0,1,9.406,9.5,6.987,6.987,0,0,1-.247,2.057H5.52a4.749,4.749,0,0,0,3.688,3.87,4.758,4.758,0,0,0,4.959-2.005l4.245,2a8.58,8.58,0,0,1-7.663,4.719ZM9.728,4.15A4.058,4.058,0,0,0,5.713,7.669H13.8a3.73,3.73,0,0,0-3.728-3.524c-.072,0-.145,0-.217.006Z" transform="translate(70.745 7.227)" fill="#fff"/>
      <path id="Path-6" data-name="Path" d="M12.171.042v4.59H9.617a4.136,4.136,0,0,0-4.333,4.52V19.528H0V.183H4.949V3.155A4.985,4.985,0,0,1,10.233.042Z" transform="translate(92.221 7.397)" fill="#fff"/>
      <path id="Path-7" data-name="Path" d="M0,19.849l4.6-2.163a7.238,7.238,0,0,0,6.534,4.766c2.695,0,4.28-1.231,4.28-2.779s-.951-2.128-2.5-2.62L7.626,15.294C3.135,13.887,1,11.337,1,7.855,1,3.159,4.791.011,10.48.011A10.727,10.727,0,0,1,20.907,6.676L16.31,8.84a5.882,5.882,0,0,0-5.83-4.062c-2.4,0-4,1.231-4,2.849,0,1.249.916,2.163,2.624,2.691l5.284,1.618c4.421,1.389,6.64,3.746,6.64,7.351,0,4.731-3.892,7.861-9.758,7.861A11.308,11.308,0,0,1,0,19.849Z" transform="translate(105.677 0.129)" fill="#fff"/>
      <path id="Path-8" data-name="Path" d="M17.613,13.876V26.291H12.329V15a3.523,3.523,0,0,0-7.045,0v11.29H0V0H5.284V8.793a5.957,5.957,0,0,1,5.055-2.2,6.917,6.917,0,0,1,7.274,7.281Z" transform="translate(129.402 0.633)" fill="#fff"/>
      <path id="Shape-3" data-name="Shape" d="M0,26.379V7.034H5.284V26.379Zm0-21.1V0H5.284V5.276Z" transform="translate(150.185 0.633)" fill="#fff"/>
      <path id="Shape-4" data-name="Shape" d="M10.749,20.144c-.21,0-.423-.008-.633-.023-.112,0-.226.006-.339.006a9.768,9.768,0,0,1-9.771-10.1A9.68,9.68,0,0,1,9.688,0h.233a9.4,9.4,0,0,1,9.406,9.5,6.987,6.987,0,0,1-.247,2.057H5.52a4.749,4.749,0,0,0,3.688,3.87,4.758,4.758,0,0,0,4.959-2.005l4.245,2a8.58,8.58,0,0,1-7.663,4.719ZM9.639,4.15A4.058,4.058,0,0,0,5.625,7.669H13.71A3.732,3.732,0,0,0,9.981,4.145c-.072,0-.145,0-.217.006Z" transform="translate(157.964 7.227)" fill="#fff"/>
      <path id="Path-9" data-name="Path" d="M0,0H5.284V26.379H0Z" transform="translate(179.423 0.633)" fill="#fff"/>
      <path id="Shape-5" data-name="Shape" d="M10.171,26.879c-.112,0-.226,0-.338-.007h-.04A9.783,9.783,0,0,1,0,16.812,9.82,9.82,0,0,1,9.8,6.753c.164-.011.331-.016.495-.016a7.663,7.663,0,0,1,5.071,1.916V0h5.284V26.379H15.7V24.62A7.845,7.845,0,0,1,10.171,26.879Zm.3-15.5A4.98,4.98,0,0,0,5.5,16.654a4.946,4.946,0,0,0,4.94,5.276h.08a4.857,4.857,0,0,0,4.843-5.276,4.892,4.892,0,0,0-4.878-5.276Z" transform="translate(187.186 0.633)" fill="#fff"/>
    </g>
  </g>
</svg>
