<svg width="258" height="201" viewBox="0 0 258 201" fill="none" xmlns="http://www.w3.org/2000/svg">
<g clip-path="url(#clip0)">
<circle cx="119.894" cy="95.9219" r="80.9219" fill="#F1F1FF" fill-opacity="0.6"/>
<rect x="49.3212" y="37.6824" width="159.774" height="98.8536" rx="13" fill="white" stroke="#202058" stroke-width="2"/>
<rect x="59.452" y="67.6841" width="65.8892" height="40.2036" rx="3.14118" fill="#F6F6FA"/>
<g filter="url(#filter0_d)">
<circle cx="92.9547" cy="87.7857" r="6.16022" fill="white"/>
<path d="M92.9551 77.7349C87.4127 77.7349 82.9042 82.2433 82.9042 87.7858C82.9042 93.3282 87.4127 97.8366 92.9551 97.8366C98.4975 97.8366 103.006 93.3282 103.006 87.7858C103.006 82.2433 98.4975 77.7349 92.9551 77.7349ZM91.3851 91.5369C90.9197 91.8106 90.3331 91.4751 90.3331 90.9352V84.6363C90.3331 84.0964 90.9197 83.7609 91.3851 84.0346L96.7392 87.1841C97.198 87.454 97.198 88.1175 96.7392 88.3874L91.3851 91.5369Z" fill="#3434FF"/>
</g>
<rect x="59.4519" y="111.238" width="65.8892" height="3.3503" rx="1.67515" fill="#ECECF4"/>
<rect x="59.4519" y="111.238" width="65.8892" height="3.3503" rx="1.67515" fill="#3434FF"/>
<rect x="59.452" y="120.114" width="65.8892" height="40.2036" rx="3.14118" fill="#F6F6FA"/>
<g filter="url(#filter1_d)">
<circle cx="92.9547" cy="140.215" r="6.16022" fill="white"/>
<path d="M92.9551 130.164C87.4127 130.164 82.9042 134.673 82.9042 140.215C82.9042 145.758 87.4127 150.266 92.9551 150.266C98.4975 150.266 103.006 145.758 103.006 140.215C103.006 134.673 98.4975 130.164 92.9551 130.164ZM91.3851 143.966C90.9197 144.24 90.3331 143.905 90.3331 143.365V137.066C90.3331 136.526 90.9197 136.19 91.3851 136.464L96.7392 139.614C97.198 139.883 97.198 140.547 96.7392 140.817L91.3851 143.966Z" fill="#3434FF"/>
</g>
<rect x="59.4519" y="163.667" width="65.8892" height="3.3503" rx="1.67515" fill="#ECECF4"/>
<rect x="59.4519" y="163.667" width="40.2036" height="3.3503" rx="1.67515" fill="#3434FF"/>
<rect x="131.308" y="67.6841" width="65.8892" height="40.2036" rx="3.14118" fill="#F6F6FA"/>
<g filter="url(#filter2_d)">
<circle cx="164.81" cy="87.7857" r="6.16022" fill="white"/>
<path d="M164.81 77.7349C159.268 77.7349 154.76 82.2433 154.76 87.7858C154.76 93.3282 159.268 97.8366 164.81 97.8366C170.353 97.8366 174.861 93.3282 174.861 87.7858C174.861 82.2433 170.353 77.7349 164.81 77.7349ZM163.24 91.5369C162.775 91.8106 162.188 91.4751 162.188 90.9352V84.6363C162.188 84.0964 162.775 83.7609 163.24 84.0346L168.595 87.1841C169.053 87.454 169.053 88.1175 168.595 88.3874L163.24 91.5369Z" fill="#3434FF"/>
</g>
<rect x="131.307" y="111.238" width="65.8892" height="3.3503" rx="1.67515" fill="#ECECF4"/>
<rect x="131.307" y="111.238" width="27.3422" height="3.3503" rx="1.67515" fill="#3434FF"/>
<rect x="131.308" y="120.114" width="65.8892" height="40.2036" rx="3.14118" fill="#F6F6FA"/>
<g filter="url(#filter3_d)">
<circle cx="164.81" cy="140.215" r="6.16022" fill="white"/>
<path d="M164.81 130.164C159.268 130.164 154.76 134.673 154.76 140.215C154.76 145.758 159.268 150.266 164.81 150.266C170.353 150.266 174.861 145.758 174.861 140.215C174.861 134.673 170.353 130.164 164.81 130.164ZM163.24 143.966C162.775 144.24 162.188 143.905 162.188 143.365V137.066C162.188 136.526 162.775 136.19 163.24 136.464L168.595 139.614C169.053 139.883 169.053 140.547 168.595 140.817L163.24 143.966Z" fill="#3434FF"/>
</g>
<rect x="131.307" y="163.667" width="65.8892" height="3.3503" rx="1.67515" fill="#ECECF4"/>
<rect x="131.307" y="163.667" width="40.2036" height="3.3503" rx="1.67515" fill="#3434FF"/>
<rect x="58.7457" y="44.606" width="140.926" height="18.0315" rx="3" fill="#F3F3FF"/>
<g filter="url(#filter4_d)">
<circle cx="210.095" cy="60.3781" r="38.1857" fill="white"/>
<circle cx="210.095" cy="60.3781" r="37.1857" stroke="#202058" stroke-width="2"/>
</g>
<path d="M210.095 24.4419C219.622 24.4419 228.759 28.2266 235.496 34.9634C242.233 41.7003 246.018 50.8374 246.018 60.3647C246.018 69.892 242.233 79.0291 235.496 85.7659C228.759 92.5027 219.622 96.2874 210.095 96.2874L210.095 60.3647L210.095 24.4419Z" fill="#E0E0F7"/>
<g filter="url(#filter5_d)">
<rect x="209.309" y="59.0698" width="27.1196" height="3.57423" rx="1.78711" transform="rotate(20 209.309 59.0698)" fill="#202058"/>
<rect x="217.932" y="45.2271" width="3.57423" height="18.4959" rx="1.78711" transform="rotate(35 217.932 45.2271)" fill="#202058"/>
<circle cx="210.095" cy="60.3784" r="5.46555" fill="#202058"/>
</g>
<path d="M61.4894 137.5H197.409C203.242 137.5 208.667 140.491 211.782 145.423L230.601 175.221C233.545 179.882 230.196 185.958 224.683 185.958H33.8745C28.3361 185.958 24.9912 179.831 27.9866 175.173L47.1901 145.306C50.3183 140.441 55.7054 137.5 61.4894 137.5Z" fill="#F4F4FA" stroke="#202058" stroke-width="2"/>
<path d="M60.9105 135.124H197.986C203.519 135.124 208.705 137.817 211.889 142.341L229.51 167.383C232.774 172.021 229.457 178.411 223.786 178.411H34.7919C29.0938 178.411 25.7831 171.967 29.1015 167.335L47.0908 142.224C50.2833 137.768 55.4287 135.124 60.9105 135.124Z" fill="white" stroke="#202058" stroke-width="2"/>
<path d="M109.252 164.843C109.994 163.735 111.241 163.07 112.575 163.07L145.851 163.07C147.186 163.07 148.433 163.736 149.176 164.846L152.639 170.025C153.528 171.354 152.576 173.137 150.977 173.137H107.443C105.843 173.137 104.891 171.352 105.781 170.024L109.252 164.843Z" fill="#F0F0F9"/>
<path d="M60.1448 140.223C60.9048 139.327 62.0207 138.81 63.1962 138.81H196.628C197.812 138.81 198.935 139.334 199.695 140.242L214.09 157.436C215.18 158.738 214.254 160.72 212.556 160.72H47.0893C45.3858 160.72 44.4622 158.726 45.5636 157.427L60.1448 140.223Z" fill="#F0F0F9"/>
<g filter="url(#filter6_d)">
<circle cx="46.3797" cy="125.198" r="20.7491" fill="white"/>
<circle cx="46.1152" cy="126.383" r="19.5319" fill="white"/>
<path d="M46.452 90.1936C26.3511 90.1936 10 106.545 10 126.646C10 146.747 26.3511 163.098 46.452 163.098C66.5529 163.098 82.9041 146.747 82.9041 126.646C82.9041 106.545 66.5529 90.1936 46.452 90.1936ZM40.9364 140.145C39.1698 141.184 36.9428 139.911 36.9428 137.861V115.43C36.9428 113.381 39.1698 112.107 40.9364 113.146L60.0026 124.362C61.7444 125.386 61.7444 127.905 60.0026 128.93L40.9364 140.145Z" fill="#3434FF"/>
</g>
</g>
<defs>
<filter id="filter0_d" x="79.414" y="75.2917" width="27.0822" height="27.0822" filterUnits="userSpaceOnUse" color-interpolation-filters="sRGB">
<feFlood flood-opacity="0" result="BackgroundImageFix"/>
<feColorMatrix in="SourceAlpha" type="matrix" values="0 0 0 0 0 0 0 0 0 0 0 0 0 0 0 0 0 0 127 0"/>
<feOffset dy="1.04706"/>
<feGaussianBlur stdDeviation="1.7451"/>
<feColorMatrix type="matrix" values="0 0 0 0 0.203922 0 0 0 0 0.203922 0 0 0 0 1 0 0 0 0.25 0"/>
<feBlend mode="normal" in2="BackgroundImageFix" result="effect1_dropShadow"/>
<feBlend mode="normal" in="SourceGraphic" in2="effect1_dropShadow" result="shape"/>
</filter>
<filter id="filter1_d" x="79.414" y="127.721" width="27.0822" height="27.0822" filterUnits="userSpaceOnUse" color-interpolation-filters="sRGB">
<feFlood flood-opacity="0" result="BackgroundImageFix"/>
<feColorMatrix in="SourceAlpha" type="matrix" values="0 0 0 0 0 0 0 0 0 0 0 0 0 0 0 0 0 0 127 0"/>
<feOffset dy="1.04706"/>
<feGaussianBlur stdDeviation="1.7451"/>
<feColorMatrix type="matrix" values="0 0 0 0 0.203922 0 0 0 0 0.203922 0 0 0 0 1 0 0 0 0.25 0"/>
<feBlend mode="normal" in2="BackgroundImageFix" result="effect1_dropShadow"/>
<feBlend mode="normal" in="SourceGraphic" in2="effect1_dropShadow" result="shape"/>
</filter>
<filter id="filter2_d" x="151.269" y="75.2917" width="27.0822" height="27.0822" filterUnits="userSpaceOnUse" color-interpolation-filters="sRGB">
<feFlood flood-opacity="0" result="BackgroundImageFix"/>
<feColorMatrix in="SourceAlpha" type="matrix" values="0 0 0 0 0 0 0 0 0 0 0 0 0 0 0 0 0 0 127 0"/>
<feOffset dy="1.04706"/>
<feGaussianBlur stdDeviation="1.7451"/>
<feColorMatrix type="matrix" values="0 0 0 0 0.203922 0 0 0 0 0.203922 0 0 0 0 1 0 0 0 0.25 0"/>
<feBlend mode="normal" in2="BackgroundImageFix" result="effect1_dropShadow"/>
<feBlend mode="normal" in="SourceGraphic" in2="effect1_dropShadow" result="shape"/>
</filter>
<filter id="filter3_d" x="151.269" y="127.721" width="27.0822" height="27.0822" filterUnits="userSpaceOnUse" color-interpolation-filters="sRGB">
<feFlood flood-opacity="0" result="BackgroundImageFix"/>
<feColorMatrix in="SourceAlpha" type="matrix" values="0 0 0 0 0 0 0 0 0 0 0 0 0 0 0 0 0 0 127 0"/>
<feOffset dy="1.04706"/>
<feGaussianBlur stdDeviation="1.7451"/>
<feColorMatrix type="matrix" values="0 0 0 0 0.203922 0 0 0 0 0.203922 0 0 0 0 1 0 0 0 0.25 0"/>
<feBlend mode="normal" in2="BackgroundImageFix" result="effect1_dropShadow"/>
<feBlend mode="normal" in="SourceGraphic" in2="effect1_dropShadow" result="shape"/>
</filter>
<filter id="filter4_d" x="152.909" y="9.19238" width="114.371" height="114.371" filterUnits="userSpaceOnUse" color-interpolation-filters="sRGB">
<feFlood flood-opacity="0" result="BackgroundImageFix"/>
<feColorMatrix in="SourceAlpha" type="matrix" values="0 0 0 0 0 0 0 0 0 0 0 0 0 0 0 0 0 0 127 0"/>
<feOffset dy="6"/>
<feGaussianBlur stdDeviation="9.5"/>
<feColorMatrix type="matrix" values="0 0 0 0 0.164913 0 0 0 0 0.164913 0 0 0 0 0.670833 0 0 0 0.21 0"/>
<feBlend mode="normal" in2="BackgroundImageFix" result="effect1_dropShadow"/>
<feBlend mode="normal" in="SourceGraphic" in2="effect1_dropShadow" result="shape"/>
</filter>
<filter id="filter5_d" x="199.629" y="42.2271" width="40.1633" height="36.4769" filterUnits="userSpaceOnUse" color-interpolation-filters="sRGB">
<feFlood flood-opacity="0" result="BackgroundImageFix"/>
<feColorMatrix in="SourceAlpha" type="matrix" values="0 0 0 0 0 0 0 0 0 0 0 0 0 0 0 0 0 0 127 0"/>
<feOffset dy="2"/>
<feGaussianBlur stdDeviation="2.5"/>
<feColorMatrix type="matrix" values="0 0 0 0 0.12 0 0 0 0 0.12 0 0 0 0 0.8 0 0 0 0.18 0"/>
<feBlend mode="normal" in2="BackgroundImageFix" result="effect1_dropShadow"/>
<feBlend mode="normal" in="SourceGraphic" in2="effect1_dropShadow" result="shape"/>
</filter>
<filter id="filter6_d" x="-6" y="79.1936" width="104.904" height="104.904" filterUnits="userSpaceOnUse" color-interpolation-filters="sRGB">
<feFlood flood-opacity="0" result="BackgroundImageFix"/>
<feColorMatrix in="SourceAlpha" type="matrix" values="0 0 0 0 0 0 0 0 0 0 0 0 0 0 0 0 0 0 127 0"/>
<feOffset dy="5"/>
<feGaussianBlur stdDeviation="8"/>
<feColorMatrix type="matrix" values="0 0 0 0 0.203922 0 0 0 0 0.203922 0 0 0 0 1 0 0 0 0.24 0"/>
<feBlend mode="normal" in2="BackgroundImageFix" result="effect1_dropShadow"/>
<feBlend mode="normal" in="SourceGraphic" in2="effect1_dropShadow" result="shape"/>
</filter>
<clipPath id="clip0">
<rect width="258" height="201" fill="white"/>
</clipPath>
</defs>
</svg>
